<?xml version="1.0" standalone="no"?>
<!DOCTYPE svg PUBLIC "-//W3C//DTD SVG 20010904//EN"
 "http://www.w3.org/TR/2001/REC-SVG-20010904/DTD/svg10.dtd">
<svg version="1.0" xmlns="http://www.w3.org/2000/svg"
 width="205.000000pt" height="191.000000pt" viewBox="0 0 205.000000 191.000000"
 preserveAspectRatio="xMidYMid meet">

<g transform="translate(0.000000,191.000000) scale(0.100000,-0.100000)"
fill="#000000" stroke="none">
<path d="M0 1524 c0 -354 1 -386 16 -380 14 6 15 4 4 -9 -14 -17 -20 -209 -9
-277 3 -21 2 -35 -2 -32 -5 3 -9 -181 -9 -410 l0 -416 1025 0 1025 0 0 955 0
955 -622 0 c-437 0 -625 -4 -635 -11 -9 -8 -13 -8 -13 0 0 8 -108 11 -390 11
l-390 0 0 -386z m1175 355 c149 -18 316 -81 448 -171 77 -53 186 -155 193
-183 3 -12 20 -36 39 -53 44 -43 97 -141 136 -254 26 -78 32 -113 37 -215 5
-134 -4 -202 -44 -323 -46 -137 -109 -237 -225 -351 -207 -205 -473 -302 -782
-285 -315 16 -579 155 -764 398 -110 145 -173 339 -173 533 0 392 255 726 657
861 150 50 302 64 478 43z m-1138 -1131 c-3 -8 -6 -5 -6 6 -1 11 2 17 5 13 3
-3 4 -12 1 -19z m53 -153 c0 -5 -5 -3 -10 5 -5 8 -10 20 -10 25 0 6 5 3 10 -5
5 -8 10 -19 10 -25z m130 -210 c13 -14 21 -25 18 -25 -2 0 -15 11 -28 25 -13
14 -21 25 -18 25 2 0 15 -11 28 -25z"/>
<path d="M656 1741 c-3 -22 -11 -43 -16 -46 -6 -4 -31 5 -55 20 l-45 26 0 -29
c0 -28 -45 -102 -79 -130 -25 -21 -134 -72 -153 -72 -24 0 -23 -17 2 -30 24
-13 25 -23 5 -44 -18 -18 -19 -36 -2 -36 29 0 114 32 172 65 69 38 133 103
154 154 13 30 17 33 46 28 18 -3 52 -15 76 -26 76 -37 183 -54 339 -54 140 0
148 1 248 35 l104 36 33 -52 c55 -85 146 -159 250 -201 65 -26 77 -25 52 3
-24 27 -21 49 8 56 26 7 35 26 13 26 -7 0 -36 11 -64 24 -86 40 -164 122 -164
173 0 40 -16 47 -53 24 -19 -11 -39 -21 -45 -21 -6 0 -14 23 -18 50 -4 28 -8
50 -10 50 -3 0 -26 -11 -52 -25 -73 -38 -156 -56 -287 -62 -144 -7 -248 11
-366 63 -42 19 -79 34 -82 34 -2 0 -7 -18 -11 -39z m96 -15 c106 -50 163 -60
318 -60 150 1 189 8 299 51 71 28 81 24 81 -33 0 -29 -3 -31 -77 -53 -43 -13
-89 -27 -103 -31 -48 -16 -116 -19 -247 -10 -106 6 -150 14 -230 40 -54 18
-104 38 -111 44 -13 13 -6 76 9 76 5 0 32 -11 61 -24z m-152 -41 c51 -26 35
-75 -49 -150 -35 -31 -167 -105 -188 -105 -16 0 -16 13 -1 28 10 10 10 15 -1
21 -20 13 -8 25 55 57 54 27 118 96 137 147 8 21 10 21 47 2z m979 -65 c23
-50 91 -112 156 -142 29 -13 32 -23 9 -32 -14 -5 -14 -9 -3 -23 13 -15 11 -16
-20 -10 -70 14 -197 120 -225 189 -15 36 -15 38 6 52 37 26 53 19 77 -34z"/>
<path d="M720 1701 c0 -6 5 -13 10 -16 6 -3 10 1 10 9 0 9 -4 16 -10 16 -5 0
-10 -4 -10 -9z"/>
<path d="M766 1684 c-4 -9 -4 -19 -1 -22 2 -3 7 3 11 12 4 9 4 19 1 22 -2 3
-7 -3 -11 -12z"/>
<path d="M1400 1685 c7 -9 15 -13 17 -11 7 7 -7 26 -19 26 -6 0 -6 -6 2 -15z"/>
<path d="M1330 1675 c-7 -9 -10 -18 -6 -22 3 -3 6 0 6 7 0 10 3 11 11 3 6 -6
19 -8 30 -6 15 4 17 8 8 19 -15 18 -33 18 -49 -1z"/>
<path d="M794 1669 c-8 -14 18 -31 30 -19 9 9 0 30 -14 30 -5 0 -12 -5 -16
-11z"/>
<path d="M855 1652 c-8 -21 4 -30 16 -12 8 13 10 13 18 0 11 -15 27 -8 17 8
-11 18 -44 20 -51 4z"/>
<path d="M1250 1645 c0 -8 4 -15 10 -15 5 0 7 7 4 15 -4 8 -8 15 -10 15 -2 0
-4 -7 -4 -15z"/>
<path d="M1280 1650 c0 -5 5 -10 10 -10 6 0 10 5 10 10 0 6 -4 10 -10 10 -5 0
-10 -4 -10 -10z"/>
<path d="M940 1631 c0 -14 5 -19 15 -14 17 6 15 25 -3 31 -7 2 -12 -5 -12 -17z"/>
<path d="M1010 1625 c0 -8 4 -15 8 -15 5 0 9 7 9 15 0 8 -4 15 -9 15 -4 0 -8
-7 -8 -15z"/>
<path d="M1046 1626 c3 -9 11 -16 16 -16 13 0 5 23 -10 28 -7 2 -10 -2 -6 -12z"/>
<path d="M1110 1631 c0 -5 5 -13 10 -16 6 -3 10 -2 10 4 0 5 -4 13 -10 16 -5
3 -10 2 -10 -4z"/>
<path d="M1160 1624 c0 -8 6 -11 15 -8 8 4 15 9 15 13 0 4 -7 8 -15 8 -8 0
-15 -6 -15 -13z"/>
<path d="M654 1527 c-10 -6 -32 -23 -47 -39 -16 -15 -60 -46 -98 -68 -74 -44
-84 -63 -49 -95 48 -43 60 -192 26 -318 -20 -76 -14 -192 13 -244 27 -52 106
-127 166 -157 28 -13 95 -34 150 -45 55 -12 126 -31 158 -42 56 -20 63 -20
106 -6 25 8 102 27 171 42 157 34 226 69 290 146 57 68 75 125 66 211 -3 35
-9 120 -12 189 -7 135 -6 139 53 212 13 16 23 32 23 36 0 4 -17 15 -37 25 -43
20 -104 66 -150 112 l-32 32 -58 -15 c-71 -19 -216 -13 -285 12 -39 14 -54 15
-83 5 -53 -17 -240 -16 -301 2 -37 12 -55 13 -70 5z m91 -26 c52 -14 196 -14
269 0 47 8 66 7 104 -6 75 -25 187 -30 261 -11 54 14 67 14 80 3 9 -7 43 -37
77 -65 33 -29 65 -52 71 -52 6 0 16 -6 22 -14 9 -11 6 -22 -14 -51 -46 -68
-50 -99 -35 -274 15 -178 11 -233 -19 -270 -12 -14 -25 -36 -31 -48 -5 -12
-20 -29 -34 -38 -23 -15 -26 -15 -60 7 -44 29 -45 35 -6 208 16 74 30 141 30
148 0 8 -20 12 -65 12 -36 0 -65 3 -65 8 0 4 23 22 50 40 27 19 65 54 85 78
l36 44 -28 2 c-15 1 -49 2 -75 2 -78 2 -73 15 26 65 35 17 65 41 77 60 10 17
19 33 19 36 0 13 -91 -31 -104 -50 -21 -32 -54 -62 -96 -90 -31 -19 -47 -22
-130 -21 l-95 1 3 34 c1 19 -4 58 -13 87 -8 28 -16 69 -16 91 l-2 38 -7 -45
c-4 -25 -16 -66 -26 -92 -15 -39 -17 -53 -7 -77 6 -16 8 -32 5 -35 -3 -3 -46
-6 -96 -6 -99 0 -105 3 -185 72 l-43 37 34 30 c18 17 36 31 41 31 4 0 7 5 7
10 0 17 -23 11 -49 -14 -43 -40 -63 -40 -108 -1 -41 34 -63 44 -63 26 0 -5 18
-24 40 -42 22 -18 40 -37 40 -41 0 -4 -20 -21 -45 -38 -46 -31 -52 -57 -12
-44 12 4 37 18 55 32 32 24 33 24 54 6 68 -59 69 -54 -10 -54 -41 0 -74 -5
-78 -11 -6 -11 110 -129 128 -129 4 0 8 -4 8 -10 0 -5 -25 -10 -55 -10 l-55 0
0 -35 c0 -20 7 -69 15 -111 9 -41 17 -101 18 -133 2 -53 -1 -60 -28 -84 -17
-15 -37 -27 -46 -27 -16 0 -56 38 -83 82 -26 41 -31 158 -11 248 9 41 19 115
22 163 5 88 5 88 -31 142 l-35 54 45 28 c25 15 71 49 102 76 38 31 64 46 77
43 11 -3 38 -9 60 -15z m102 -340 c115 -97 128 -109 123 -114 -8 -8 -128 22
-164 40 -48 24 -147 103 -141 112 2 5 31 9 64 10 58 1 62 -1 118 -48z m413 45
c0 -12 -208 -166 -224 -166 -4 0 -33 24 -64 54 -32 30 -69 65 -85 78 -15 13
-25 27 -21 30 6 7 394 11 394 4z m200 -5 c0 -17 -105 -98 -167 -130 -43 -21
-83 -33 -132 -37 -80 -8 -90 1 -38 37 17 13 65 49 106 81 l74 58 78 0 c44 0
79 -4 79 -9z m-585 -177 c60 -9 112 -18 115 -21 5 -5 -19 -27 -85 -78 -21 -16
-64 -51 -96 -77 -32 -27 -62 -48 -67 -48 -8 0 -42 176 -42 220 0 25 24 26 175
4z m525 -21 c0 -10 -11 -58 -24 -108 -17 -65 -28 -90 -39 -90 -16 0 -246 184
-247 197 0 7 66 11 238 16 63 2 72 0 72 -15z m-376 -167 c-5 -95 -11 -146 -18
-146 -6 0 -40 9 -76 20 -35 11 -90 22 -122 26 -32 4 -58 10 -58 13 0 10 272
243 277 238 2 -3 1 -70 -3 -151z m185 14 c66 -63 121 -118 121 -122 0 -5 -15
-8 -32 -8 -27 0 -151 -24 -218 -41 -13 -3 -16 19 -20 144 -3 82 -3 150 -1 153
7 7 29 -11 150 -126z m-524 -160 c3 -5 30 -10 58 -10 77 0 247 -45 262 -69 9
-15 45 -14 64 2 25 21 123 41 258 51 29 3 57 8 64 11 14 9 59 -14 59 -31 0 -6
-8 -15 -17 -19 -70 -28 -137 -48 -192 -56 -35 -5 -97 -19 -138 -31 l-74 -21
-82 26 c-45 14 -102 29 -127 33 -65 10 -200 63 -200 79 0 13 37 45 52 45 4 0
10 -4 13 -10z"/>
<path d="M265 984 c-14 -42 -25 -64 -32 -64 -5 0 -22 13 -39 30 -18 16 -34 26
-38 23 -9 -9 13 -43 28 -43 8 0 19 -7 26 -15 18 -21 29 -19 42 10 16 36 24 31
42 -22 70 -206 292 -390 540 -447 131 -31 376 -18 496 25 57 20 161 78 216
119 49 37 153 149 168 180 4 8 22 44 41 80 l34 65 11 -32 c7 -18 16 -33 21
-33 12 0 11 6 -1 28 -5 9 -14 30 -20 45 -6 16 -15 25 -21 22 -6 -4 -8 -9 -5
-12 10 -10 -73 -158 -121 -217 -96 -119 -243 -210 -401 -250 -68 -17 -294 -26
-369 -14 -111 17 -254 78 -349 149 -102 75 -198 209 -230 319 -19 65 -31 81
-39 54z"/>
<path d="M1883 918 c-5 -7 -10 -28 -11 -46 -5 -75 -83 -220 -159 -297 -105
-105 -276 -200 -423 -234 -118 -27 -325 -35 -438 -16 -258 44 -482 181 -591
360 -35 58 -80 177 -81 213 0 12 -4 22 -9 22 -30 0 53 -222 110 -295 81 -102
193 -187 314 -240 33 -14 69 -30 80 -35 124 -56 445 -69 618 -25 162 41 308
119 406 216 104 104 178 236 195 347 7 44 5 50 -11 30z"/>
<path d="M252 820 c0 -14 2 -19 5 -12 2 6 2 18 0 25 -3 6 -5 1 -5 -13z"/>
<path d="M1790 821 c0 -11 31 -24 39 -16 3 3 -1 10 -9 15 -19 12 -30 12 -30 1z"/>
<path d="M1785 790 c3 -5 8 -10 11 -10 2 0 4 5 4 10 0 6 -5 10 -11 10 -5 0 -7
-4 -4 -10z"/>
<path d="M280 780 c-8 -5 -12 -11 -9 -14 2 -3 11 -1 19 4 8 5 12 11 9 14 -2 3
-11 1 -19 -4z"/>
<path d="M1752 749 c-10 -15 -10 -19 2 -19 15 0 29 27 18 34 -5 3 -13 -4 -20
-15z"/>
<path d="M340 695 c-17 -21 -9 -27 13 -10 10 7 14 16 9 19 -5 3 -15 -1 -22 -9z"/>
<path d="M1710 700 c-7 -4 -9 -13 -6 -19 11 -17 26 -13 20 4 -5 11 -2 13 10 9
9 -3 16 -4 16 -1 0 10 -27 15 -40 7z"/>
<path d="M370 665 c-7 -9 -11 -18 -8 -20 3 -3 11 1 18 10 7 9 11 18 8 20 -3 3
-11 -1 -18 -10z"/>
<path d="M1670 661 c0 -5 7 -12 16 -15 24 -9 28 -7 14 9 -14 17 -30 20 -30 6z"/>
<path d="M386 634 c-4 -10 -1 -14 6 -12 15 5 23 28 10 28 -5 0 -13 -7 -16 -16z"/>
<path d="M405 610 c-3 -5 -2 -10 4 -10 5 0 13 5 16 10 3 6 2 10 -4 10 -5 0
-13 -4 -16 -10z"/>
<path d="M1647 609 c7 -7 15 -10 18 -7 3 3 -2 9 -12 12 -14 6 -15 5 -6 -5z"/>
<path d="M439 583 c-13 -16 -12 -17 4 -4 9 7 17 15 17 17 0 8 -8 3 -21 -13z"/>
<path d="M1608 583 c6 -2 18 -2 25 0 6 3 1 5 -13 5 -14 0 -19 -2 -12 -5z"/>
<path d="M470 564 c0 -8 6 -22 14 -29 12 -12 16 -12 26 1 7 8 10 18 6 21 -4 4
-11 1 -15 -6 -6 -9 -11 -10 -15 -2 -4 6 -4 16 -1 21 3 6 1 10 -4 10 -6 0 -11
-7 -11 -16z"/>
<path d="M1550 542 c0 -12 19 -26 26 -19 2 2 -2 10 -11 17 -9 8 -15 8 -15 2z"/>
<path d="M542 505 c0 -16 2 -22 5 -12 2 9 2 23 0 30 -3 6 -5 -1 -5 -18z"/>
<path d="M1526 519 c3 -6 0 -15 -7 -20 -7 -4 -10 -11 -7 -15 10 -9 41 24 33
36 -3 5 -11 10 -16 10 -6 0 -7 -5 -3 -11z"/>
<path d="M570 493 c0 -5 5 -15 10 -23 8 -12 10 -11 10 8 0 12 -4 22 -10 22 -5
0 -10 -3 -10 -7z"/>
<path d="M1463 493 c-16 -6 -17 -29 -3 -38 6 -4 9 -1 8 7 -2 7 2 12 9 11 7 -2
10 4 7 12 -4 8 -7 15 -8 14 0 0 -7 -3 -13 -6z"/>
<path d="M646 454 c-8 -22 1 -31 16 -16 9 9 9 15 1 23 -7 7 -12 5 -17 -7z"/>
<path d="M1420 462 c0 -12 19 -26 26 -19 2 2 -2 10 -11 17 -9 8 -15 8 -15 2z"/>
<path d="M1394 444 c3 -9 6 -18 6 -20 0 -2 4 -4 9 -4 5 0 7 9 4 20 -3 11 -10
20 -15 20 -6 0 -7 -7 -4 -16z"/>
<path d="M707 424 c9 -15 19 -22 21 -15 2 6 -3 18 -11 26 -24 24 -29 18 -10
-11z"/>
<path d="M1330 416 c0 -9 5 -16 10 -16 6 0 10 4 10 9 0 6 -4 13 -10 16 -5 3
-10 -1 -10 -9z"/>
<path d="M1293 403 c9 -9 19 -14 23 -11 10 10 -6 28 -24 28 -15 0 -15 -1 1
-17z"/>
<path d="M807 396 c-4 -10 -5 -21 -2 -24 9 -9 17 6 13 25 -3 17 -4 17 -11 -1z"/>
<path d="M857 386 c-4 -10 -5 -21 -2 -24 9 -9 17 6 13 25 -3 17 -4 17 -11 -1z"/>
<path d="M1193 393 c-16 -6 -5 -33 13 -33 8 0 14 6 14 14 0 18 -11 25 -27 19z"/>
<path d="M1236 385 c4 -8 10 -15 15 -15 4 0 6 7 3 15 -4 8 -10 15 -15 15 -4 0
-6 -7 -3 -15z"/>
<path d="M927 370 c-4 -15 -2 -20 8 -17 7 3 18 0 25 -6 9 -9 11 -6 8 13 -4 32
-33 39 -41 10z"/>
<path d="M1100 371 c0 -12 5 -21 10 -21 6 0 10 6 10 14 0 8 -4 18 -10 21 -5 3
-10 -3 -10 -14z"/>
<path d="M1147 370 c3 -11 9 -20 14 -20 4 0 7 9 6 20 -1 11 -7 20 -13 20 -7 0
-10 -8 -7 -20z"/>
<path d="M890 365 c0 -8 5 -15 10 -15 6 0 10 7 10 15 0 8 -4 15 -10 15 -5 0
-10 -7 -10 -15z"/>
<path d="M1032 370 c2 -8 18 -16 34 -17 18 -1 22 0 9 4 -11 3 -26 10 -34 17
-11 9 -13 8 -9 -4z"/>
<path d="M920 269 c-162 -3 -297 -7 -300 -8 -3 -1 6 -8 20 -16 14 -7 27 -9 31
-4 3 5 165 12 365 15 l359 6 -29 -26 c-28 -25 -29 -27 -10 -40 10 -8 21 -12
24 -10 2 3 -2 10 -10 15 -13 8 -12 12 5 24 65 46 65 44 5 46 -115 4 -173 4
-460 -2z"/>
<path d="M822 205 c0 -16 2 -22 5 -12 2 9 2 23 0 30 -3 6 -5 -1 -5 -18z"/>
<path d="M905 220 c-4 -6 1 -17 11 -25 25 -18 30 -11 11 15 -10 14 -17 18 -22
10z"/>
<path d="M980 210 c33 -26 48 -26 25 0 -10 11 -25 20 -34 20 -12 0 -9 -6 9
-20z"/>
<path d="M1036 221 c-5 -7 -3 -18 3 -24 14 -14 20 -6 11 17 -5 15 -9 16 -14 7z"/>
<path d="M1134 212 c-9 -14 -7 -17 12 -18 27 -2 31 8 11 24 -9 8 -16 7 -23 -6z"/>
<path d="M1200 210 c0 -12 8 -17 25 -17 17 0 25 5 25 17 0 12 -8 18 -25 18
-17 0 -25 -6 -25 -18z"/>
<path d="M690 207 c0 -7 -17 -22 -37 -32 l-38 -18 40 -10 c24 -5 178 -6 375
-3 319 6 427 14 389 28 -9 4 -34 2 -55 -2 -29 -7 -534 -14 -679 -10 -18 1 -18
3 7 24 15 13 24 27 21 30 -11 10 -23 7 -23 -7z"/>
<path d="M746 204 c-4 -9 -4 -19 -1 -22 3 -3 5 0 5 8 0 10 3 10 15 0 9 -7 18
-11 20 -8 9 9 -7 38 -20 38 -7 0 -16 -7 -19 -16z"/>
</g>
</svg>
